<svg
  width="80"
  viewBox="0 0 990 281"
  xmlns="http://www.w3.org/2000/svg">
    <path
      fill="rgb(161 161 170)"
      stroke="rgb(161 161 170)"
      stroke-width="0.5rem" 
      d="M 283.333344 6.933319 C 281.466675 10.399994 274.666656 22.933319 268.133331 34.666656 C 252.799988 62.399994 250 67.466675 244 78.666656 C 241.200012 83.733337 237.866669 89.733337 236.666656 92 C 235.333344 94.133331 232.799988 98.666656 231.066681 102 C 224 115.066666 210.799988 138.933334 207.600006 144.666672 C 205.733337 148 201.866669 155.199997 198.933319 160.666672 C 196 166.133331 192.933319 171.333328 192.133331 172.133331 C 191.333344 173.066666 184.666672 175.733337 177.333328 178.266663 C 170 180.800003 160.933334 184.133331 157.199997 185.733337 L 150.399994 188.399994 L 142.399994 182.933334 C 132.266663 175.866669 117.866669 169.199997 106.666672 166.266663 C 103.733337 165.46666 98.800003 164.266663 95.866669 163.46666 C 92.800003 162.666672 86.666672 162 82.133331 162 C 76.53334 162 74 161.46666 74 160.266663 C 74 159.46666 76.800003 153.866669 80.133331 148 C 83.46666 142.133331 88.399994 133.46666 90.933334 128.666672 C 93.600006 123.866669 102.133331 108.53334 110 94.666656 C 117.866669 80.666656 126.266663 65.733337 128.666672 61.333344 C 131.066666 56.933319 136.800003 46.666656 141.333328 38.666656 C 160.266663 5.200012 161.066666 3.333344 156.133331 3.333344 C 154.800003 3.333344 142.666672 23.600006 127.199997 52 C 124.800003 56.399994 121.46666 62.266663 119.733337 64.933319 C 118 67.733337 116.666672 70.133331 116.666672 70.399994 C 116.666672 70.799988 112.266663 78.666656 106.933334 88.133331 C 101.600006 97.600006 95.199997 108.933334 92.800003 113.333328 C 72.800003 149.866669 65.333328 162 62.933334 162 C 53.866669 162 34.400002 172.53334 28.400002 180.800003 C 22.533333 188.53334 23.73333 202.133331 30.800003 210 L 35.466667 215.066666 L 31.866669 221.600006 C 29.866669 225.066666 25.73333 232.53334 22.666664 238 C 19.599998 243.466675 15.599998 250.666656 13.73333 254 C 11.866669 257.333344 8.133331 263.866669 5.466667 268.399994 C 2.800003 273.06665 0.666664 277.733337 0.666664 278.799988 C 0.666664 282.133331 5.73333 280.799988 7.73333 277.06665 C 9.73333 273.06665 10.933334 270.799988 27.599998 241.466675 C 33.333336 231.333328 38 222.53334 38 222 C 38 221.46666 38.800003 220.266663 39.866669 219.46666 C 41.333336 218.266663 43.599998 218.53334 50.26667 220.666672 C 61.866669 224.666672 81.333328 224.666672 96 220.800003 C 101.866669 219.199997 115.866669 213.333328 127.066666 207.866669 C 138.399994 202.266663 148.399994 198.133331 149.333328 198.399994 C 150.266663 198.800003 153.066666 202.666672 155.46666 206.800003 C 159.199997 213.46666 159.866669 215.866669 159.866669 223.333328 C 159.866669 230.800003 159.199997 233.199997 154.933334 240.800003 C 150.933334 248 150.399994 250 151.733337 251.199997 C 154.399994 253.333344 157.600006 249.199997 166.266663 232.666672 C 174.133331 217.866669 181.199997 204.666672 189.600006 189.333328 C 194.666656 180.133331 194.799988 180 202 178.399994 C 224.266663 173.333328 264 171.066666 282 173.733337 C 287.733337 174.666672 288 174.933334 288.399994 179.333328 C 288.933319 184.800003 291.733337 188.399994 297.600006 190.800003 C 307.066681 194.933334 317.333344 192.133331 332.799988 181.733337 L 340.266663 176.53334 L 350.133331 178.133331 C 363.066681 180.133331 409.866669 178.933334 423.333344 176.266663 C 443.333344 172.266663 446.799988 171.46666 454.799988 168.933334 C 467.599976 164.666672 490.266663 155.199997 495.599976 151.600006 C 500.400024 148.53334 500.799988 148.399994 504 150.53334 C 505.866638 151.733337 507.06665 153.333328 506.533325 154.133331 C 506.133362 154.800003 500.400024 159.866669 493.866638 165.333328 C 473.333313 182.399994 469.06665 190 474.666687 200.53334 C 480.266663 211.600006 497.599976 213.46666 525.866638 206.133331 C 542.533325 201.866669 571.733337 193.600006 578 191.333328 C 579.866638 190.666672 587.599976 188.266663 595.333313 186 C 621.733337 178 655.200012 165.866669 658.93335 162.933334 C 662.533325 160.266663 662 166.133331 657.733337 178.800003 L 653.200012 191.733337 L 644.666687 193.46666 C 630 196.399994 620.133362 201.46666 612.799988 209.46666 C 609.200012 213.46666 605.866638 218.399994 605.333313 220.666672 C 603.866638 227.333328 605.866638 234.933334 610.266663 239.333344 C 613.599976 242.666656 615.200012 243.333344 621.06665 243.333344 C 632.133362 243.333344 639.733337 236.266663 649.333313 216.666672 C 652 211.199997 655.200012 204.53334 656.533325 202 C 658.533325 197.733337 659.599976 197.199997 668.666687 194.933334 C 674.133362 193.600006 680.799988 192 683.333313 191.333328 C 685.866638 190.666672 700.266663 187.066666 715.333313 183.333328 C 739.200012 177.46666 749.866638 174.800003 766.666687 170 C 768.93335 169.333328 772.799988 168.266663 775.333313 167.600006 C 777.866638 166.933334 784.533325 164.800003 790 162.933334 C 795.466675 161.066666 800.266663 159.733337 800.799988 160 C 801.200012 160.399994 800.93335 163.866669 800 167.866669 C 797.466675 178.666672 799.599976 186.399994 807.333313 194 C 815.06665 201.866669 823.599976 204.666672 839.333313 204.666672 C 860 204.666672 895.200012 195.600006 928 182 C 946.93335 174 989.333374 151.733337 989.733276 149.46666 C 990.533325 145.733337 985.599976 147.066666 973.199951 153.733337 C 922 181.600006 871.333313 197.866669 835.866638 198 C 829.200012 198 821.733337 197.333328 819.200012 196.53334 C 806.93335 192.399994 801.733337 183.333328 804.533325 171.066666 L 806 164 L 823.733337 164 C 840.266663 164 841.866638 163.733337 849.333313 160.266663 C 858.666687 155.866669 865.200012 150.133331 868.93335 142.800003 C 871.06665 138.53334 871.333313 137.066666 870 134 C 866 124.266663 846.400024 121.066666 832.666687 128 C 828.666687 130 820.93335 136.133331 815.466675 141.600006 C 805.599976 151.333328 805.06665 151.733337 789.866638 156.800003 C 781.333313 159.600006 770.799988 162.933334 766.533325 164.133331 C 762.133362 165.333328 756.93335 166.666672 754.666687 167.333328 C 743.599976 170.399994 712.93335 178.133331 699.333313 181.199997 C 690.93335 183.199997 679.200012 186 673.466675 187.46666 C 667.599976 188.933334 662.400024 189.600006 661.866638 189.066666 C 660.799988 187.733337 665.200012 170.266663 668.666687 162.399994 C 670.400024 158.53334 672.666687 156 676.266663 154.266663 C 681.866638 151.333328 685.200012 146.53334 684.400024 142.53334 C 683.333313 136.800003 673.333313 140.800003 669.333313 148.800003 C 667.06665 153.066666 660.799988 156.53334 643.333313 163.199997 C 637.06665 165.600006 630.799988 168.133331 629.333313 168.800003 C 623.599976 171.333328 570 188.800003 556 192.666672 C 553.866638 193.333328 548.400024 194.800003 544 196 C 520.93335 202.399994 509.466675 204.666672 500.400024 204.666672 C 484.799988 204.666672 477.466675 199.066666 479.866638 189.333328 C 481.06665 184.399994 494 171.199997 507.200012 161.333328 C 518.799988 152.53334 520.666687 149.066666 513.866638 147.733337 C 510.799988 147.199997 510.133362 146.399994 510.799988 144.800003 C 511.333313 143.600006 512 141.066666 512.266663 139.066666 C 512.799988 136 512.400024 135.333328 509.466675 134.53334 C 505.466675 133.600006 502.400024 135.600006 500.533325 140.266663 C 499.866638 142 497.06665 144.399994 494.400024 145.600006 C 491.599976 146.800003 484 150.399994 477.333313 153.46666 C 444.133331 169.066666 405.066681 175.866669 364.133331 173.333328 C 346.399994 172.266663 345.066681 171.333328 350.666656 164.133331 C 353.066681 161.066666 354.399994 157.199997 354.933319 152.399994 C 355.600006 146 355.200012 144.800003 352 140.933334 C 344.133331 131.600006 328.799988 132.800003 317.733337 143.733337 C 314.533325 146.800003 309.866669 150.933334 307.333344 152.800003 C 302 156.933334 298.799988 159.866669 293.733337 165.733337 C 290.399994 169.46666 289.600006 169.733337 286.399994 168.53334 C 280 166 230.133331 166.53334 214.799988 169.199997 C 207.600006 170.53334 201.466675 171.199997 201.066681 170.800003 C 200.399994 170.133331 201.866669 166.933334 207.600006 156.666672 C 209.466675 153.333328 214.799988 143.733337 219.333344 135.333328 C 224 126.933334 229.066681 117.600006 230.799988 114.666672 C 243.466675 91.600006 254.399994 71.866669 258.666656 64 C 261.466675 58.799988 264.799988 52.799988 266 50.666656 C 267.333344 48.399994 269.866669 44 271.600006 40.666656 C 273.466675 37.333344 278.666656 27.866669 283.200012 19.600006 C 287.733337 11.200012 291.200012 3.600006 290.799988 2.533325 C 289.466675 -0.933319 286.666656 0.666656 283.333344 6.933319 Z M 861.333313 133.066666 C 864.799988 136 864.93335 136.266663 862.93335 140.800003 C 860.400024 146.933334 852.533325 153.333328 843.333313 156.800003 C 837.466675 159.066666 833.599976 159.46666 824.400024 159.066666 C 812.133362 158.666672 809.200012 157.46666 813.06665 154.800003 C 814.266663 153.866669 815.333313 152.133331 815.333313 150.933334 C 815.333313 148.399994 825.866638 138.266663 832.533325 134.53334 C 838.93335 130.800003 840.93335 130.399994 850.266663 130.133331 C 856.400024 130 858.533325 130.53334 861.333313 133.066666 Z M 344.533325 141.333328 C 350.799988 144.53334 351.066681 151.733337 345.333344 160.266663 C 342.266663 164.933334 340.666656 164.800003 340.666656 159.733337 C 340.666656 158 339.733337 155.199997 338.666656 153.46666 C 336.666656 150.53334 334.799988 149.46666 326.666656 146.666672 C 324.133331 145.733337 324.133331 145.600006 327.333344 144.266663 C 329.200012 143.46666 332.799988 142.133331 335.333344 141.199997 C 337.866669 140.399994 340.133331 139.600006 340.399994 139.46666 C 340.666656 139.333328 342.533325 140.266663 344.533325 141.333328 Z M 330.933319 156 C 334.266663 158.266663 336.133331 163.46666 334.799988 166.800003 C 333.733337 169.46666 329.066681 168.53334 322.533325 164.266663 C 317.333344 160.933334 315.733337 157.46666 318.133331 154.53334 C 320.133331 152.133331 326 152.800003 330.933319 156 Z M 312.799988 162 C 314.799988 165.600006 318 168.399994 322.933319 170.933334 C 326.799988 172.933334 330 175.066666 330 175.600006 C 330 177.866669 324.133331 181.733337 317.733337 183.866669 C 310.133331 186.266663 301.733337 186.666672 297.866669 184.666672 C 292.533325 181.733337 296 170.399994 305.066681 160.933334 C 307.333344 158.666672 309.333344 156.666672 309.466675 156.666672 C 309.733337 156.666672 311.200012 159.066666 312.799988 162 Z M 100.666672 169.333328 C 105.866669 170.399994 114.53334 173.199997 119.733337 175.333328 C 129.199997 179.199997 142 187.866669 142.933334 190.933334 C 143.46666 192.53334 113.46666 208.266663 102.666672 212 C 91.600006 215.866669 81.733337 217.866669 74.666672 217.866669 C 67.733337 217.866669 54.666664 215.46666 48.26667 212.800003 L 44.533333 211.333328 L 50.133331 200.933334 C 53.199997 195.333328 56.133331 190 56.666664 189.333328 C 57.73333 187.866669 62.133331 180.266663 66.399994 172.266663 L 69.199997 167.333328 L 80.133331 167.333328 C 86.266663 167.333328 95.46666 168.266663 100.666672 169.333328 Z M 60.666664 169.46666 C 60.666664 169.866669 56 178.53334 50.400002 188.666672 C 44.133331 199.866669 39.199997 207.333328 38 207.333328 C 36.800003 207.333328 34.933334 205.733337 33.866669 203.600006 C 28.26667 194 29.73333 186.133331 38.666664 178.266663 C 45.066666 172.53334 60.666664 166.399994 60.666664 169.46666 Z M 184.666672 184.933334 C 184.53334 185.866669 181.866669 191.46666 178.53334 197.333328 C 175.199997 203.199997 171.600006 210 170.399994 212.399994 C 167.733337 217.600006 165.733337 217.333328 164.53334 211.733337 C 164.133331 209.46666 162.133331 204.800003 160.133331 201.333328 C 158.266663 197.866669 156.666672 194.53334 156.666672 194.133331 C 156.666672 193.600006 158.933334 192.399994 161.733337 191.333328 C 164.399994 190.399994 170.266663 188.133331 174.666672 186.53334 C 184.266663 182.933334 184.666672 182.933334 184.666672 184.933334 Z M 650 199.600006 C 649.866638 202.666672 642.533325 218.53334 638.133362 225.333328 C 630.133362 237.600006 618.799988 241.600006 611.866638 234.666656 C 608.266663 231.066666 608.400024 229.600006 612.133362 221.333328 C 617.06665 210.53334 625.866638 204.133331 641.06665 200 C 649.866638 197.733337 650 197.733337 650 199.600006 Z"   
   />
</svg>